<?xml version="1.0" encoding="utf-8"?>
<!-- Generator: Adobe Illustrator 26.0.1, SVG Export Plug-In . SVG Version: 6.00 Build 0)  -->
<svg version="1.1" id="Layer_1" xmlns="http://www.w3.org/2000/svg" xmlns:xlink="http://www.w3.org/1999/xlink" x="0px" y="0px"
	 viewBox="0 0 465.7 447" style="enable-background:new 0 0 465.7 447;" xml:space="preserve">
<style type="text/css">
	.st0{fill:#D3D3D3;}
</style>
<path class="st0" d="M332.9,83.5c-7.9,4.6-13.9,11.1-18,18.6c-14.8-17.2-40-22.1-60.4-10.3c-15.1,8.7-23.4,24.3-23.8,40.5
	c-15.5-16.8-40-22.1-60.4-10.4c-10.7,6.2-17.9,15.9-21.5,26.8L74.6,20.1C63.6,1,39.1-5.5,20.8,5.1C0.8,16.6-5.7,41,5.3,60.1
	l161.4,279.5l-85.8-36.7c-12-5.2-25.2-3.9-35.7,2.2c-18.4,10.6-26.1,34.8-14.6,54.6c4.2,7.2,10.6,13.2,18.9,16.8l139.8,59.7
	c39.2,16.7,84.6,14,121.4-7.3l83.1-48c68.8-39.7,92.4-127.9,52.7-196.7l-48-83.1C385.2,78.1,355.8,70.2,332.9,83.5z"/>
</svg>
