<?xml version="1.0" standalone="no" ?>
<!-- Generator: Adobe Illustrator 26.0.1, SVG Export Plug-In . SVG Version: 6.00 Build 0)  -->
<svg version="1.1" id="Layer_1" xmlns="http://www.w3.org/2000/svg" xmlns:xlink="http://www.w3.org/1999/xlink" x="0px" y="0px"
	 viewBox="0 0 320 512" style="enable-background:new 0 0 320 512;" xml:space="preserve">
<style type="text/css">
	.st0{fill:#D3D3D3;}
</style>
<g>
	<path class="st0" d="M90.3,463.57L90.3,463.57c-18.96,0-34.47-15.51-34.47-34.47V82.89c0-18.96,15.51-34.47,34.47-34.47h0
		c18.96,0,34.47,15.51,34.47,34.47v346.21C124.77,448.06,109.26,463.57,90.3,463.57z"/>
	<path class="st0" d="M229.7,463.57L229.7,463.57c-18.96,0-34.47-15.51-34.47-34.47V82.89c0-18.96,15.51-34.47,34.47-34.47h0
		c18.96,0,34.47,15.51,34.47,34.47v346.21C264.17,448.06,248.66,463.57,229.7,463.57z"/>
</g>
</svg>
