<?xml version="1.0" encoding="utf-8"?>
<!-- Generator: Adobe Illustrator 26.0.1, SVG Export Plug-In . SVG Version: 6.00 Build 0)  -->
<svg version="1.1" id="Layer_1" xmlns="http://www.w3.org/2000/svg" xmlns:xlink="http://www.w3.org/1999/xlink" x="0px" y="0px"
	 viewBox="0 0 512 512" style="enable-background:new 0 0 512 512;" xml:space="preserve">
<style type="text/css">
	.st0{fill:none;}
	.st1{enable-background:new    ;}
</style>
<path d="M256.1,43.4c-50.4,0-99.8,18.7-139,52.7l-8,6.9l0,0l-7.5-7.5L54,48c-3.8-3.8-8-4.6-10.9-4.6c-7.8,0-15.8,5.9-15.8,15.7V205
	c0,4.3,3.5,7.8,7.8,7.8h145.8c9.7,0,13.5-7.4,14.5-9.7c0.9-2.3,3.5-10.2-3.4-17.1l-45.1-45.1L138,132l0,0l9.7-7.9
	c30.8-25.3,69.3-39.2,108.5-39.2c94.4,0,171.1,76.8,171.1,171.1c0,45.6-17.8,88.6-50.2,121s-75.3,50.2-120.9,50.2
	c-37.4,0-72.9-11.8-102.7-34.2c-3.6-2.7-7.9-4.1-12.4-4.1c-6.6,0-12.6,3-16.5,8.2c-6.8,9.1-5,22.1,4.1,28.9
	c35.9,27,78.3,41.6,122.9,42.6c118.2,2.5,216.4-93,217.1-211.3C469.4,139.5,373.7,43.4,256.1,43.4z"/>
<rect x="28.7" y="217.1" class="st0" width="170.8" height="163.9"/>
<g class="st1">
	<path d="M76.7,360.8h-20v-96.5l-29.5,10v-16.8l46.9-17.2h2.6V360.8z"/>
	<path d="M196.7,310.2c0,17.3-3.2,30.3-9.7,39.1c-6.5,8.8-16.3,13.2-29.5,13.2c-13,0-22.8-4.3-29.3-12.8c-6.6-8.6-9.9-21.2-10.1-38
		v-20.8c0-17.3,3.2-30.2,9.7-38.9c6.5-8.6,16.3-13,29.6-13c13.1,0,23,4.2,29.4,12.6c6.5,8.4,9.8,21,9.9,37.8V310.2z M176.7,287.8
		c0-11.3-1.5-19.5-4.6-24.8c-3.1-5.3-8-7.9-14.7-7.9c-6.5,0-11.4,2.5-14.4,7.5c-3.1,5-4.7,12.7-4.9,23.3v27.2
		c0,11.2,1.6,19.6,4.7,25.1c3.1,5.5,8.1,8.3,14.8,8.3c6.4,0,11.2-2.5,14.3-7.6c3.1-5.1,4.7-13.1,4.9-23.9V287.8z"/>
	<path d="M223.6,262.3l-11.9-7.4c5.8-8.4,8.8-17.3,8.9-26.6V213h20.5v13.3c0,6.6-1.7,13.3-5,20C232.7,253,228.5,258.3,223.6,262.3z
		 M255.7,262.3l-11.9-7.4c5.8-8.4,8.8-17.3,8.9-26.6V213h20.5v13.3c0,6.6-1.7,13.3-5,20C264.8,253,260.6,258.3,255.7,262.3z"/>
</g>
</svg>
